  <svg class="wave" xmlns="http://www.w3.org/2000/svg" viewBox="0 0 1440 319"><path fill="#FAC000" fill-opacity="1" d="M 0 64 L 30 69.3 C 60 75 120 85 180 101.3 C 240 117 300 139 360 133.3 C 420 128 480 96 540 112 C 600 128 660 192 720 213.3 C 780 235 840 213 900 202.7 C 960 192 1020 192 1080 197.3 C 1140 203 1200 213 1260 192 C 1315 180 1364 172 1408 155 L 1440 150 L 1440 320 L 1410 320 C 1380 320 1320 320 1260 320 C 1200 320 1140 320 1080 320 C 1020 320 960 320 900 320 C 840 320 780 320 720 320 C 660 320 600 320 540 320 C 480 320 420 320 360 320 C 300 320 240 320 180 320 C 120 320 60 320 30 320 L 0 320 Z"></path></svg>
